<svg id="Calque_1" data-name="Calque 1" xmlns="http://www.w3.org/2000/svg" viewBox="0 0 411.14 334.16"><defs><style>.cls-1{fill:#fff;}</style></defs><title>ShopeeShop Logo</title><path d="M476.16,500.76A38.89,38.89,0,0,1,494.75,515c14.27,19.74,10,47.53-9.3,60.82a31.33,31.33,0,0,1-18.33,5.56q-163.11-.14-326.22-.16c-3.24,0-6.49,0-9.71.24-24.35,1.71-39.87-21.1-39.1-40.91.57-14.42,6-26.18,17.87-34.3a36.8,36.8,0,0,1,7.25-3.52c4.25-1.67,4.28-1.58,6-6C104,480.38,93.08,459.79,92.83,433.93c-.25-26.14,10.74-46.53,31-62-9-10.83-11.66-22.8-4.27-35.4s18.86-15.28,32.33-12.62c4.14-10.47,10.76-18.32,22.26-21.2-.5-1.06-.95-2-1.42-3-4.13-8.56-5.45-17.41-2-26.51,2.73-7.26,8.19-11.28,15.63-11.86a43.1,43.1,0,0,1,24.94,5.28,3.52,3.52,0,0,0,2.87-.24c5.93-3.16,12.15-5.18,18.87-5a21.1,21.1,0,0,1,18.41,10.38c.56.87,1.11,1.74,1.87,2.94,1.11-1.59,2.09-3,3.11-4.45,9-12.54,20.73-20.46,35.93-22.44a58.36,58.36,0,0,1,7.48-.34c23.14,0,46.28,0,69.41-.1,8.45,0,15.87,2.36,21.86,8.7a27,27,0,0,1,7.29,18.33c.46,15.31-5.18,28.61-13,41.15-.43.7-.89,1.39-1.62,2.5,3-.69,5.68-1.14,8.19-2,.68-.23,1.15-1.56,1.46-2.48,3.58-10.47,9.37-19.18,18.65-25.15,6.33-4.08,13.25-5.65,20.45-3.58a14.05,14.05,0,0,0,8.56-.06c7.16-2.12,14-.34,20.14,3.71,13.1,8.61,19.64,21.4,21.54,36.9a54.62,54.62,0,0,1-2.57,24.51,5.1,5.1,0,0,0,.74,3.79A84.69,84.69,0,0,1,494.66,388a56.72,56.72,0,0,1-.5,21,14.22,14.22,0,0,0,.52,8.31A80.74,80.74,0,0,1,496.12,470c-3.43,11.1-9.17,20.76-17.83,28.44-.56.49-1.1,1-1.64,1.54A7.74,7.74,0,0,0,476.16,500.76Zm-164.77-63.4.58.31c-1.79,3.61-3.51,7.26-5.39,10.81-4.28,8.1-8.8,16.06-12.91,24.24a41.9,41.9,0,0,0-4,15.92c8.53-.36,16.82-1.05,25.1-1s16.52.95,24.85,1.47c-1.41-6.93-.4-13.82.81-20.65,1.66-9.35,4.08-18.58,5.36-28s1.14-19.18-2.47-28.43c-1.2-3.08-2.82-5.19-6.18-5.54a12.15,12.15,0,0,1-2.41-.91c17.35-2.3,29.29-12.05,30.27-24.49-14.92.68-27.23,6.21-35.89,19.28.43-1.69.86-3.39,1.31-5.21a44.75,44.75,0,0,0-19.07-2.14c-16.79,1.86-30.5,10-41.68,22.73-5.56,6.33-9,13.7-8.52,22.56.58,11,8.05,19.38,18.5,20.42,8.43.85,15.43-2.62,21.16-8.68C304.57,446.1,307.88,441.62,311.39,437.36ZM211.87,301.5a77.62,77.62,0,0,0,26.84,32.56c22.79,16,47.53,20.49,73.63,11,17.24-6.25,30.39-18.57,40.06-34.63a11.78,11.78,0,0,1,2.16-2.92c.56-.48,1.92-.78,2.36-.43a4.42,4.42,0,0,1,1.14,2.63c.08.53-.47,1.2-.81,1.76a91.54,91.54,0,0,1-23.91,26.7c-1.43,1.05-2.83,2.16-4.24,3.24a1.7,1.7,0,0,0,1.48,0A76.93,76.93,0,0,0,353,325.89c12.57-12.81,21.78-27.57,25.66-45.54.76-3.55.15-4.32-3.34-4.34-6.75,0-13.51-.07-20.26,0-9,.13-17.36,2.92-23.79,9.39C326,290.78,321.47,297,317,303.14c-5.74,7.82-11.78,15.17-20.49,19.67a65.51,65.51,0,0,1-42.65,6.3c-15-2.69-27.06-10.35-35.51-23.61a35.67,35.67,0,0,1-1.73-3.5c13.06-1.26,22.08-12,18.82-22.32-2.38,2.85-5.49,3.1-8.69,2.69-6.17-.79-10.6,1.7-13.54,7.24a16.07,16.07,0,0,1-.94,1.37c-4.49-7.06-7-8.72-13.07-8.61-4.07.07-8.26,1-11.65-2.94C187.26,293.84,197.86,303.31,211.87,301.5Zm266,96.67-.54-.2c0-.85-.06-1.71-.15-2.56a15.17,15.17,0,0,0-.41-2.53c-3.56-12.53-8.54-24.54-16.48-34.67-13.68-17.46-33.84-17.44-46.68.14a99.47,99.47,0,0,0-15.84,34.06c-2.06,8,0,15.38,5.5,21.42a49.17,49.17,0,0,0,29.93,16.06c14.53,2.14,34.94-8.92,41.61-22.38C476.22,404.61,476.85,401.29,477.85,398.17Zm-22.26,41.07c-3.3,1.86-6.25,3.59-9.27,5.19-3.28,1.74-6.62,4.66-9.94,4.66s-6.39-3-9.59-4.76c-.25-.13-.51-.24-.75-.38-10.62-6.22-20.57-13.25-27.27-24.17-.85-1.38-1.73-2.75-3.06-4.87-1.81,5.75-3.68,10.64-4.87,15.7-4.7,19.95-.94,38.33,10.32,55.15.63.94,1.72,2.18,2.63,2.2,7.36.18,14.72.1,22.44.1a75.48,75.48,0,0,1-6.55-27.68A17.82,17.82,0,0,1,421.4,464c2.84,7.13,6.42,13.67,12.84,18.19,2.34,1.64,4,1.46,6.1-.36a39,39,0,0,0,12.39-19.53A72.81,72.81,0,0,0,455.59,439.24ZM115.52,420.48c.3-.83.61-1.66.89-2.5,6.16-18.41,25-34,46.31-32,13,1.25,23.79,6.83,30.08,19,2.95,5.73,4.64,12.18,6.66,18.38,1.64,5,3.5,9.83,7,13.81a14.68,14.68,0,0,0,13.41,5.3c1.79-.21,2.66-1,2.81-2.8.24-2.84.64-5.67.82-8.52.58-9.07-1.77-17.72-3.5-26.49A77.69,77.69,0,0,1,218.71,390c0-3.18,1.1-3.68,3.92-3.14,10.63,2,21.63-7.85,20.65-18.31-2.15.67-4.33,1.87-6.52,1.91-5.49.1-11-.66-15.36,2.67-1.14-2.95-1.75-5.93-3.3-8.24-2.84-4.24-7.1-7.67-5.83-13.89-5.24,5.45-8,11.63-7.42,19.1a12.75,12.75,0,0,0,4.15,9.06,27.29,27.29,0,0,0,4.59,2.68c-4,5.31-4.85,11.53-5.69,18.17-7.86-9.31-17.09-15.73-28.34-18.71s-22.39-2.74-33.23,1.8C129.81,390.05,119.16,402.25,115.52,420.48Zm65.34,25.19c-.64.76-1.33,1.52-2,2.33a31.67,31.67,0,0,1-17.16,11.45A56.55,56.55,0,0,1,127.09,458c-3.51-1.29-6.9-2.92-10.37-4.41,5.26,15.72,22.74,33.71,48.93,34.24a55.71,55.71,0,0,0,55.17-40.72C204.3,457.44,198.43,457.24,180.86,445.67ZM203,533.45l-1.57.06A52.48,52.48,0,0,1,198,527c-1.34-3.75-1.54-4-5.36-3.2-7.91,1.71-14.6,9.83-15.11,18.35-.5,8.18,4.8,16.07,12.8,19.06,4.84,1.81,5.89,1.23,8.25-3.34.88-1.71,2.63-3,4-4.4,1.23,1.61,2.86,3,3.6,4.85,1.58,3.84,2.1,4.34,6,3.4A19.23,19.23,0,0,0,227,542.81a19.85,19.85,0,0,0-16.1-19.12c-2.67-.49-3.8.72-4.66,3.16A54,54,0,0,1,203,533.45Zm256.46,24.61c8.19,4.82,14.89,4,20.11-2.2a19,19,0,0,0,.54-23.47,15.78,15.78,0,0,0-9-5.82c-4.41-1-8.13.73-11.65,3.49-1.13-2.63-2.76-4.18-5.48-3.37s-3.07,3.19-3.07,5.72c0,12.2,0,24.39,0,36.59,0,3.61,1.47,5.49,4.19,5.55s4.33-1.69,4.37-5.31S459.42,562,459.42,558.06Zm-218.15.17c9,4.62,15.21,3.73,20.1-2.64,5.2-6.77,5.24-17.09.09-23.59s-11-7.1-20-2.4c-1.89-3.17-4.74-4.35-6.7-2.33a8,8,0,0,0-1.9,5c-.15,12.36-.07,24.73,0,37.1,0,3.48,1.64,5.44,4.35,5.36,2.54-.08,4.06-2,4.08-5.39C241.29,565.74,241.27,562.13,241.27,558.23Zm182.36,3.86a19.16,19.16,0,0,0,19.28-19.3c.08-10.31-8.88-19.48-19-19.46-10.37,0-19.06,9-19.07,19.69A18.85,18.85,0,0,0,423.63,562.09Zm-45.41-33.81c0-1.13,0-2.14,0-3.15-.05-4,0-8-.21-12-.13-2.35-1.44-3.91-3.9-4s-3.8,1.31-4.25,3.65a20.64,20.64,0,0,0-.29,3.69q0,20.14,0,40.29c0,3.41,1.64,5.41,4.38,5.45S378,560.62,378,557c0-5.14,0-10.28,0-15.43,0-3.27,1.73-5.38,4.57-5.85,3.72-.61,6.62,1.92,6.68,6,.06,5.42-.17,10.86,0,16.28a4.77,4.77,0,0,0,2.09,3.56c1.21.55,3.43.42,4.3-.41a7.62,7.62,0,0,0,1.77-4.79c.21-4.94.11-9.9,0-14.85C397.3,529.65,389.15,523.87,378.22,528.28Zm-225.92.4c0-5.14,0-10,0-14.84,0-3.09-1.72-4.86-4.32-4.8s-4,1.79-4,4.77q-.06,21.69,0,43.39c0,3.26,1.66,5.06,4.39,5s4-1.74,4-5c0-5.05,0-10.09,0-15.13,0-3.86,2.14-6.37,5.48-6.43,3.51-.07,5.58,2.2,5.6,6.25,0,5-.06,9.9,0,14.85,0,3.37,1.74,5.5,4.33,5.46s4.09-2,4.1-5.34c0-5.24.09-10.47,0-15.7a20.75,20.75,0,0,0-.93-5.87C168.17,527.17,161.31,524.65,152.3,528.68Zm160,18.62h3c5.45,0,10.91,0,16.35.16,2.47.07,3.47-1.09,3.73-3.49,1.08-9.63-7.55-18.71-16.93-17.74-7.91.81-14.16,7.68-14.6,16.07-.52,9.68,4.69,17.2,13.23,19.08,6,1.32,12.83-1,15.63-5.42l-4.68-5.07C318.74,555,314.28,554.05,312.31,547.3Zm-35.11.08c1.08-.06,1.88-.15,2.69-.15,5.65,0,11.29,0,16.93,0,1.58,0,3.06-.22,3.27-2.24.62-6.13-1.26-11.35-5.89-15.25s-9.8-4.85-15.35-2.47C272.2,530.14,268,537.48,268.54,545s5.74,14.23,12.52,16.21c6.14,1.8,13.58-.62,16.34-5.37a27.5,27.5,0,0,1-2.5-3c-1.36-2.18-2.54-2.29-4.62-.66C286.16,555.39,279.11,554,277.2,547.38Zm74.11,14.7c.7,0,1.53-.05,2.36-.15a11,11,0,0,0,9.84-10.29c.36-5.38-2.28-8.73-8.21-10.43-1.52-.43-3.23-.53-4.49-1.36-1-.69-2.27-2.39-2.07-3.35a4.12,4.12,0,0,1,3.09-2.39c1.4-.09,2.91.86,4.3,1.53,2.21,1.07,4,.43,5.39-1.39s.28-3.21-.9-4.51c-2.36-2.61-5.43-3.52-8.76-3.62a12.21,12.21,0,0,0-12.3,10.52c-.76,5.34,1.94,8.65,8.62,10.6a34,34,0,0,1,5,1.63c.78.37,1.81,1.54,1.71,2.19a3.65,3.65,0,0,1-1.94,2.35c-2.77,1.2-5.22.1-7.45-1.67-1.75-1.39-3.31-.85-4.68.57a3.26,3.26,0,0,0-.25,4.61C343.22,560.59,346.89,562,351.31,562.08Zm-225.51,0a30.87,30.87,0,0,0,3.84-.55,10.83,10.83,0,0,0,8.13-10.61c.06-5.07-2.37-8-7.84-9.57-1.52-.42-3.21-.55-4.49-1.36-1.07-.67-1.67-2.14-2.47-3.26,1.25-.93,2.42-2.4,3.78-2.62s2.7.92,4,1.52a4.24,4.24,0,0,0,5.43-1.49c1.35-1.73.14-3.31-1.09-4.49a12.47,12.47,0,0,0-11.59-3.24,12.25,12.25,0,0,0-9.45,11c-.18,4.68,2.55,7.85,8.27,9.61a21.2,21.2,0,0,1,4.48,1.47c1,.61,1.7,1.91,2.53,2.91-1.12.84-2.25,2.37-3.36,2.35a12.08,12.08,0,0,1-5.38-1.78c-1.83-1-3.45-1.5-5,.13s-1.24,3.67.15,5.37A12.31,12.31,0,0,0,125.8,562.1ZM460.6,353c5.08-11.81,6.21-23.72.62-35.72-2.18-4.68-5.19-8.86-9.83-11.26-1.35-.7-3.23-.31-4.86-.42a21.88,21.88,0,0,0,1,4.08c5.17,11.53,8.51,23.32,5.32,36.16a2,2,0,0,0,.51,1.65C455.66,349.34,458.06,351.08,460.6,353Zm-46.8.21c1.93-1.75,3.49-3.63,5.44-4.79,1.67-1,1.79-2,1.52-3.65-2-12.69.74-24.55,6.05-36a16.25,16.25,0,0,0,.78-3.07c-1.22-.16-2.77-.9-3.61-.39a28.19,28.19,0,0,0-6.73,5.3C408,321.45,406.53,339.74,413.8,353.2ZM245,304.86c.63.2.83.34,1,.29,1.12-.45,2.24-.89,3.33-1.4,9.14-4.25,16.34-11.08,22.92-18.63,8.88-10.21,19.6-15,33.13-14.67,23.85.53,47.71.15,71.95.15a7.92,7.92,0,0,0-6.78-3.07c-24.24,0-48.49,0-72.73.06a29.54,29.54,0,0,0-20.48,8.22,59.81,59.81,0,0,0-5.47,5.67C264.21,290.68,256.62,299.93,245,304.86Zm-74.45,45.82c2.77-4.77,7.1-7.5,11.35-10.39a23.72,23.72,0,0,0,5.37-4.82,7.73,7.73,0,0,0,.21-9.29,7.87,7.87,0,0,0-8.48-3.47c-4.73.89-6.95,4.39-8.21,8.69C169,337.71,169.47,344.13,170.58,350.68ZM276.9,306.53c4.23,3.38,9.21,4.29,14.44,3.72,4.74-.51,9.29-1.78,12.51-5.86,2.12-2.69,3-5.68,1.38-9a7.07,7.07,0,0,0-6.69-4.28c-3.45.08-5.35,2.38-6.78,5.44a9.18,9.18,0,0,1-3.27,4C284.85,302.71,281,304.47,276.9,306.53ZM156.73,363.17c.83-7.12-4.73-16.46-11.4-18.78-3.66-1.28-7.58,0-9.35,2.94a7.31,7.31,0,0,0,1.61,9.3,14,14,0,0,0,5,2.8C147.3,360.85,152.05,362,156.73,363.17Zm180.68,9.13c-8.09-.15-21.13,9.28-23.84,16.77l17.81,2.37C334.39,385.82,337.19,379.53,337.41,372.3ZM157.23,449.94a6.08,6.08,0,0,0,6.06-6.07,6.62,6.62,0,0,0-6.37-6.54,6.41,6.41,0,0,0-6,6.54A6,6,0,0,0,157.23,449.94Zm193.23,26.59c-.16-3-.7-6.38-.38-9.61.35-3.6-1.9-5.31-3.83-8.08-.85,3.88-1.6,7.12-2.25,10.37a2.2,2.2,0,0,0,.39,1.74C346.45,473,348.61,474.85,350.46,476.53Zm-1.09-34c-.56,3.19-1,6.07-1.57,8.93-.84,4.29-.72,4.63,3.44,7.35.58-2.43,1.14-4.81,1.72-7.19C354.18,446.61,354,446.06,349.37,442.52Zm5.18-.73a44.78,44.78,0,0,1,.07-6.88c.63-4-1.46-6-4.65-8.06,0,2.59.31,4.87-.07,7C349.2,437.89,351.29,439.93,354.55,441.79Zm-.84-16.64c-1-5.94-3.21-9.66-6.77-11.44a34.23,34.23,0,0,1,1.62,5.71C348.9,422.66,350.74,424.22,353.71,425.15Zm127.06,19.12c-1.36,8.26-2.71,16.52-4.1,25C480.06,461.15,481,452.8,480.77,444.27Z" transform="translate(-92.07 -247.34)"/><path class="cls-1" d="M311.39,437.36c-3.51,4.26-6.82,8.74-10.6,12.74-5.73,6.06-12.73,9.53-21.16,8.68-10.45-1-17.92-9.45-18.5-20.42-.47-8.86,3-16.23,8.52-22.56,11.18-12.73,24.89-20.87,41.68-22.73a44.75,44.75,0,0,1,19.07,2.14c-.45,1.82-.88,3.52-1.31,5.21,8.66-13.07,21-18.6,35.89-19.28-1,12.44-12.92,22.19-30.27,24.49a12.15,12.15,0,0,0,2.41.91c3.36.35,5,2.46,6.18,5.54,3.61,9.25,3.78,18.88,2.47,28.43s-3.7,18.63-5.36,28c-1.21,6.83-2.22,13.72-.81,20.65-8.33-.52-16.58-1.38-24.85-1.47s-16.57.61-25.1,1a41.9,41.9,0,0,1,4-15.92c4.11-8.18,8.63-16.14,12.91-24.24,1.88-3.55,3.6-7.2,5.39-10.81ZM325.2,431c6.3,0,11.48-4.85,11.42-10.72-.08-6.45-6.33-12.34-13.25-12.46a10.87,10.87,0,0,0-11,10.51C312.31,425.07,318.29,431,325.2,431Zm-43.26,0c-1.92-1.27-3-2.6-4.11-2.55-.87,0-2.2,1.63-2.38,2.7a2.28,2.28,0,0,0,2.69,2.76C279.23,433.72,280.13,432.47,281.94,431Z" transform="translate(-92.07 -247.34)"/><path class="cls-1" d="M211.87,301.5c-14,1.81-24.61-7.66-24.34-22.07,3.39,3.94,7.58,3,11.65,2.94,6.11-.11,8.58,1.55,13.07,8.61a16.07,16.07,0,0,0,.94-1.37c2.94-5.54,7.37-8,13.54-7.24,3.2.41,6.31.16,8.69-2.69,3.26,10.31-5.76,21.06-18.82,22.32a35.67,35.67,0,0,0,1.73,3.5c8.45,13.26,20.54,20.92,35.51,23.61a65.51,65.51,0,0,0,42.65-6.3c8.71-4.5,14.75-11.85,20.49-19.67,4.49-6.13,9-12.36,14.32-17.71,6.43-6.47,14.76-9.26,23.79-9.39,6.75-.1,13.51-.06,20.26,0,3.49,0,4.1.79,3.34,4.34-3.88,18-13.09,32.73-25.66,45.54a76.93,76.93,0,0,1-22.45,15.49,1.7,1.7,0,0,1-1.48,0c1.41-1.08,2.81-2.19,4.24-3.24a91.54,91.54,0,0,0,23.91-26.7c.34-.56.89-1.23.81-1.76a4.42,4.42,0,0,0-1.14-2.63c-.44-.35-1.8,0-2.36.43a11.78,11.78,0,0,0-2.16,2.92c-9.67,16.06-22.82,28.38-40.06,34.63-26.1,9.48-50.84,5-73.63-11A77.62,77.62,0,0,1,211.87,301.5Zm73.91,45c2.86-.24,5.26-.42,7.65-.63,16.83-1.48,30.48-9.21,41.38-22.31a15.13,15.13,0,0,0,2.53-4,3,3,0,0,0-.73-2.61,2.48,2.48,0,0,0-2.4.16,15.06,15.06,0,0,0-2.59,3,59.16,59.16,0,0,1-15.5,14.1c-9.42,5.86-19.79,7.65-30.54,8.06a10.78,10.78,0,0,0-3.28.4c-.65.24-1.57,1.22-1.49,1.72a2.87,2.87,0,0,0,1.59,2A13.08,13.08,0,0,0,285.78,346.46Z" transform="translate(-92.07 -247.34)"/><path class="cls-1" d="M477.85,398.17c-1,3.12-1.63,6.44-3.06,9.34C468.12,421,447.71,432,433.18,429.89a49.17,49.17,0,0,1-29.93-16.06c-5.49-6-7.56-13.37-5.5-21.42a99.47,99.47,0,0,1,15.84-34.06c12.84-17.58,33-17.6,46.68-.14,7.94,10.13,12.92,22.14,16.48,34.67a15.17,15.17,0,0,1,.41,2.53c.09.85.11,1.71.15,2.56Zm-70.69-10.95c0,2.9.74,5,3.24,6.09a5.08,5.08,0,0,0,6.5-1.69c3.18-4.54,6.1-9.27,9-14a4.64,4.64,0,0,0-.81-6,4.5,4.5,0,0,0-5.88-.85c-5.81,3.8-9.35,9.55-12,15.95A1.05,1.05,0,0,0,407.16,387.22Zm60.07,0a11.56,11.56,0,0,0-1-2.83c-2.61-3.91-5.2-7.86-8.14-11.51a8.37,8.37,0,0,0-4.7-2.62c-3.77-.69-7.09,3-5.41,6.28a135,135,0,0,0,9.83,15.75c1.4,2,3.89,2,6.1.86S467,390.1,467.23,387.26ZM455,404.19a43.69,43.69,0,0,1-2.15,4.49c-5,7.92-20.6,10.66-27.67,4.57-2.64-2.26-4.41-5.58-6.26-8a14,14,0,0,0,8.74,15.32,22.1,22.1,0,0,0,21.28-1.73C453.81,415.75,456.08,410.3,455,404.19Zm-15.75-1.28c.2-2.87,1.65-4.22,4.19-5,1.36-.44,2.51-2.08,3.4-3.43,1-1.51.21-2.65-1.49-2.66-5.64,0-11.28,0-16.92.19-.54,0-1.61,1.49-1.49,1.7.92,1.57,2,4.13,3.18,4.23,3.32.28,4.4,2.1,4.62,5Z" transform="translate(-92.07 -247.34)"/><path class="cls-1" d="M455.59,439.24a72.81,72.81,0,0,1-2.86,23,39,39,0,0,1-12.39,19.53c-2.1,1.82-3.76,2-6.1.36-6.42-4.52-10-11.06-12.84-18.19a17.82,17.82,0,0,0-1.72-3.58,75.48,75.48,0,0,0,6.55,27.68c-7.72,0-15.08.08-22.44-.1-.91,0-2-1.26-2.63-2.2-11.26-16.82-15-35.2-10.32-55.15,1.19-5.06,3.06-9.95,4.87-15.7,1.33,2.12,2.21,3.49,3.06,4.87,6.7,10.92,16.65,18,27.27,24.17.24.14.5.25.75.38,3.2,1.71,6.4,4.77,9.59,4.76s6.66-2.92,9.94-4.66C449.34,442.83,452.29,441.1,455.59,439.24Z" transform="translate(-92.07 -247.34)"/><path class="cls-1" d="M115.52,420.48c3.64-18.23,14.29-30.43,30.81-37.36,10.84-4.54,22-4.78,33.23-1.8S200,390.72,207.9,400c.84-6.64,1.7-12.86,5.69-18.17a27.29,27.29,0,0,1-4.59-2.68,12.75,12.75,0,0,1-4.15-9.06c-.54-7.47,2.18-13.65,7.42-19.1-1.27,6.22,3,9.65,5.83,13.89,1.55,2.31,2.16,5.29,3.3,8.24,4.32-3.33,9.87-2.57,15.36-2.67,2.19,0,4.37-1.24,6.52-1.91,1,10.46-10,20.33-20.65,18.31-2.82-.54-3.93,0-3.92,3.14A77.69,77.69,0,0,0,220,404.71c1.73,8.77,4.08,17.42,3.5,26.49-.18,2.85-.58,5.68-.82,8.52-.15,1.82-1,2.59-2.81,2.8a14.68,14.68,0,0,1-13.41-5.3c-3.5-4-5.36-8.8-7-13.81-2-6.2-3.71-12.65-6.66-18.38-6.29-12.21-17.09-17.79-30.08-19-21.31-2.05-40.15,13.58-46.31,32C116.13,418.82,115.82,419.65,115.52,420.48Z" transform="translate(-92.07 -247.34)"/><path class="cls-1" d="M180.86,445.67c17.57,11.57,23.44,11.77,40,1.47a55.71,55.71,0,0,1-55.17,40.72c-26.19-.53-43.67-18.52-48.93-34.24,3.47,1.49,6.86,3.12,10.37,4.41a56.55,56.55,0,0,0,34.65,1.42A31.67,31.67,0,0,0,178.9,448C179.53,447.19,180.22,446.43,180.86,445.67Z" transform="translate(-92.07 -247.34)"/><path class="cls-1" d="M203,533.45a54,54,0,0,0,3.27-6.6c.86-2.44,2-3.65,4.66-3.16A19.85,19.85,0,0,1,227,542.81a19.23,19.23,0,0,1-14.81,18.9c-3.92.94-4.44.44-6-3.4-.74-1.81-2.37-3.24-3.6-4.85-1.36,1.45-3.11,2.69-4,4.4-2.36,4.57-3.41,5.15-8.25,3.34-8-3-13.3-10.88-12.8-19.06.51-8.52,7.2-16.64,15.11-18.35,3.82-.83,4-.55,5.36,3.2a52.48,52.48,0,0,0,3.4,6.52ZM219,543c0-4.53-3.06-8.24-6.79-8.27s-8,4.65-7.9,8.56,4.19,8.41,7.45,8.4C215.51,551.67,219,547.45,219,543Zm-33.49.23c0,4.15,3.17,8.26,6.5,8.33,3.66.08,7.92-4.21,8.05-8.09.13-4.09-3.89-8.47-7.81-8.52C188.64,534.9,185.56,538.68,185.53,543.23Z" transform="translate(-92.07 -247.34)"/><path class="cls-1" d="M459.42,558.06c0,4,0,7.57,0,11.18s-1.52,5.38-4.37,5.31-4.18-1.94-4.19-5.55c0-12.2,0-24.39,0-36.59,0-2.53.3-4.89,3.07-5.72s4.35.74,5.48,3.37c3.52-2.76,7.24-4.53,11.65-3.49a15.78,15.78,0,0,1,9,5.82,19,19,0,0,1-.54,23.47C474.31,562,467.61,562.88,459.42,558.06Zm7.74-5.78a8.51,8.51,0,0,0,8.38-8.46,8.39,8.39,0,0,0-8.16-8.37,8.18,8.18,0,0,0-8.11,8.32C459.29,548.62,462.64,552.24,467.16,552.28Z" transform="translate(-92.07 -247.34)"/><path class="cls-1" d="M241.27,558.23c0,3.9,0,7.51,0,11.12,0,3.34-1.54,5.31-4.08,5.39-2.71.08-4.34-1.88-4.35-5.36,0-12.37-.1-24.74,0-37.1a8,8,0,0,1,1.9-5c2-2,4.81-.84,6.7,2.33,8.93-4.7,14.93-4,20,2.4s5.11,16.82-.09,23.59C256.48,562,250.31,562.85,241.27,558.23Zm0-14.53c-.06,5.06,3.28,8.88,7.76,8.87s8.3-4.17,8.28-8.93a8.34,8.34,0,0,0-8-8.16C244.75,535.37,241.28,538.91,241.23,543.7Z" transform="translate(-92.07 -247.34)"/><path class="cls-1" d="M423.63,562.09A18.85,18.85,0,0,1,404.82,543c0-10.69,8.7-19.68,19.07-19.69,10.14,0,19.1,9.15,19,19.46A19.16,19.16,0,0,1,423.63,562.09Zm.21-8.66a10.77,10.77,0,0,0,10.55-10.6c-.06-5.56-5-10.64-10.27-10.65a10.43,10.43,0,0,0-10.51,10.53C413.56,548.85,418,553.47,423.84,553.43Z" transform="translate(-92.07 -247.34)"/><path class="cls-1" d="M378.22,528.28c10.93-4.41,19.08,1.37,19.26,13.29.07,4.95.17,9.91,0,14.85a7.62,7.62,0,0,1-1.77,4.79c-.87.83-3.09,1-4.3.41a4.77,4.77,0,0,1-2.09-3.56c-.2-5.42,0-10.86,0-16.28-.06-4.13-3-6.66-6.68-6-2.84.47-4.55,2.58-4.57,5.85,0,5.15,0,10.29,0,15.43,0,3.61-1.33,5.25-4.07,5.21s-4.38-2-4.38-5.45q0-20.14,0-40.29a20.64,20.64,0,0,1,.29-3.69c.45-2.34,1.83-3.72,4.25-3.65s3.77,1.64,3.9,4c.2,4,.16,8,.21,12C378.23,526.14,378.22,527.15,378.22,528.28Z" transform="translate(-92.07 -247.34)"/><path class="cls-1" d="M152.3,528.68c9-4,15.87-1.51,18.56,6.6a20.75,20.75,0,0,1,.93,5.87c.12,5.23.06,10.46,0,15.7,0,3.37-1.53,5.3-4.1,5.34s-4.31-2.09-4.33-5.46c0-5,.06-9.9,0-14.85,0-4-2.09-6.32-5.6-6.25-3.34.06-5.48,2.57-5.48,6.43,0,5,0,10.08,0,15.13,0,3.26-1.41,4.93-4,5s-4.38-1.73-4.39-5q0-21.71,0-43.39c0-3,1.54-4.71,4-4.77s4.28,1.71,4.32,4.8C152.35,518.69,152.3,523.54,152.3,528.68Z" transform="translate(-92.07 -247.34)"/><path class="cls-1" d="M312.31,547.3c2,6.75,6.43,7.65,15.76,3.59l4.68,5.07c-2.8,4.37-9.65,6.74-15.63,5.42-8.54-1.88-13.75-9.4-13.23-19.08.44-8.39,6.69-15.26,14.6-16.07,9.38-1,18,8.11,16.93,17.74-.26,2.4-1.26,3.56-3.73,3.49-5.44-.13-10.9-.12-16.35-.16Zm.48-7.51h13.9c-1.57-4-4.19-5.71-7.79-5.43C315.63,534.62,313.58,536.43,312.79,539.79Z" transform="translate(-92.07 -247.34)"/><path class="cls-1" d="M277.2,547.38c1.91,6.65,9,8,13.08,4.8,2.08-1.63,3.26-1.52,4.62.66a27.5,27.5,0,0,0,2.5,3c-2.76,4.75-10.2,7.17-16.34,5.37-6.78-2-12-8.71-12.52-16.21s3.66-14.85,10.31-17.69c5.55-2.38,10.78-1.37,15.35,2.47s6.51,9.12,5.89,15.25c-.21,2-1.69,2.24-3.27,2.24-5.64,0-11.28,0-16.93,0C279.08,547.23,278.28,547.32,277.2,547.38ZM291.57,540c-1.41-4-4-5.8-7.57-5.64-3.24.15-5.49,2.1-6.38,5.64Z" transform="translate(-92.07 -247.34)"/><path class="cls-1" d="M351.31,562.08c-4.42-.08-8.09-1.49-10.74-5.16a3.26,3.26,0,0,1,.25-4.61c1.37-1.42,2.93-2,4.68-.57,2.23,1.77,4.68,2.87,7.45,1.67a3.65,3.65,0,0,0,1.94-2.35c.1-.65-.93-1.82-1.71-2.19a34,34,0,0,0-5-1.63c-6.68-2-9.38-5.26-8.62-10.6a12.21,12.21,0,0,1,12.3-10.52c3.33.1,6.4,1,8.76,3.62,1.18,1.3,2.27,2.74.9,4.51s-3.18,2.46-5.39,1.39c-1.39-.67-2.9-1.62-4.3-1.53a4.12,4.12,0,0,0-3.09,2.39c-.2,1,1,2.66,2.07,3.35,1.26.83,3,.93,4.49,1.36,5.93,1.7,8.57,5,8.21,10.43a11,11,0,0,1-9.84,10.29C352.84,562,352,562,351.31,562.08Z" transform="translate(-92.07 -247.34)"/><path class="cls-1" d="M125.8,562.1a12.31,12.31,0,0,1-10-4.65c-1.39-1.7-1.87-3.59-.15-5.37s3.19-1.16,5-.13a12.08,12.08,0,0,0,5.38,1.78c1.11,0,2.24-1.51,3.36-2.35-.83-1-1.49-2.3-2.53-2.91a21.2,21.2,0,0,0-4.48-1.47c-5.72-1.76-8.45-4.93-8.27-9.61a12.25,12.25,0,0,1,9.45-11,12.47,12.47,0,0,1,11.59,3.24c1.23,1.18,2.44,2.76,1.09,4.49a4.24,4.24,0,0,1-5.43,1.49c-1.33-.6-2.8-1.72-4-1.52s-2.53,1.69-3.78,2.62c.8,1.12,1.4,2.59,2.47,3.26,1.28.81,3,.94,4.49,1.36,5.47,1.54,7.9,4.5,7.84,9.57a10.83,10.83,0,0,1-8.13,10.61A30.87,30.87,0,0,1,125.8,562.1Z" transform="translate(-92.07 -247.34)"/><path class="cls-1" d="M460.6,353c-2.54-1.91-4.94-3.65-7.26-5.51a2,2,0,0,1-.51-1.65c3.19-12.84-.15-24.63-5.32-36.16a21.88,21.88,0,0,1-1-4.08c1.63.11,3.51-.28,4.86.42,4.64,2.4,7.65,6.58,9.83,11.26C466.81,329.27,465.68,341.18,460.6,353Z" transform="translate(-92.07 -247.34)"/><path class="cls-1" d="M413.8,353.2c-7.27-13.46-5.82-31.75,3.45-42.56a28.19,28.19,0,0,1,6.73-5.3c.84-.51,2.39.23,3.61.39a16.25,16.25,0,0,1-.78,3.07c-5.31,11.41-8,23.27-6.05,36,.27,1.7.15,2.66-1.52,3.65C417.29,349.57,415.73,351.45,413.8,353.2Z" transform="translate(-92.07 -247.34)"/><path class="cls-1" d="M245,304.86c11.59-4.93,19.18-14.18,26.83-23.38a59.81,59.81,0,0,1,5.47-5.67,29.54,29.54,0,0,1,20.48-8.22c24.24-.09,48.49,0,72.73-.06a7.92,7.92,0,0,1,6.78,3.07c-24.24,0-48.1.38-71.95-.15-13.53-.3-24.25,4.46-33.13,14.67-6.58,7.55-13.78,14.38-22.92,18.63-1.09.51-2.21.95-3.33,1.4C245.86,305.2,245.66,305.06,245,304.86Z" transform="translate(-92.07 -247.34)"/><path class="cls-1" d="M170.58,350.68c-1.11-6.55-1.61-13,.24-19.28,1.26-4.3,3.48-7.8,8.21-8.69a7.87,7.87,0,0,1,8.48,3.47,7.73,7.73,0,0,1-.21,9.29,23.72,23.72,0,0,1-5.37,4.82C177.68,343.18,173.35,345.91,170.58,350.68Z" transform="translate(-92.07 -247.34)"/><path class="cls-1" d="M276.9,306.53c4.07-2.06,8-3.82,11.59-6a9.18,9.18,0,0,0,3.27-4c1.43-3.06,3.33-5.36,6.78-5.44a7.07,7.07,0,0,1,6.69,4.28c1.65,3.29.74,6.28-1.38,9-3.22,4.08-7.77,5.35-12.51,5.86C286.11,310.82,281.13,309.91,276.9,306.53Z" transform="translate(-92.07 -247.34)"/><path class="cls-1" d="M156.73,363.17c-4.68-1.22-9.43-2.32-14.09-3.74a14,14,0,0,1-5-2.8,7.31,7.31,0,0,1-1.61-9.3c1.77-3,5.69-4.22,9.35-2.94C152,346.71,157.56,356.05,156.73,363.17Z" transform="translate(-92.07 -247.34)"/><path class="cls-1" d="M337.41,372.3c-.22,7.23-3,13.52-6,19.14l-17.81-2.37C316.28,381.58,329.32,372.15,337.41,372.3Z" transform="translate(-92.07 -247.34)"/><path class="cls-1" d="M157.23,449.94a6,6,0,0,1-6.3-6.07,6.41,6.41,0,0,1,6-6.54,6.62,6.62,0,0,1,6.37,6.54A6.08,6.08,0,0,1,157.23,449.94Z" transform="translate(-92.07 -247.34)"/><path class="cls-1" d="M350.46,476.53c-1.85-1.68-4-3.57-6.07-5.58a2.2,2.2,0,0,1-.39-1.74c.65-3.25,1.4-6.49,2.25-10.37,1.93,2.77,4.18,4.48,3.83,8.08C349.76,470.15,350.3,473.48,350.46,476.53Z" transform="translate(-92.07 -247.34)"/><path class="cls-1" d="M349.37,442.52c4.61,3.54,4.81,4.09,3.59,9.09-.58,2.38-1.14,4.76-1.72,7.19-4.16-2.72-4.28-3.06-3.44-7.35C348.37,448.59,348.81,445.71,349.37,442.52Z" transform="translate(-92.07 -247.34)"/><path class="cls-1" d="M354.55,441.79c-3.26-1.86-5.35-3.9-4.65-7.91.38-2.16.07-4.44.07-7,3.19,2,5.28,4.09,4.65,8.06A44.78,44.78,0,0,0,354.55,441.79Z" transform="translate(-92.07 -247.34)"/><path class="cls-1" d="M353.71,425.15c-3-.93-4.81-2.49-5.15-5.73a34.23,34.23,0,0,0-1.62-5.71C350.5,415.49,352.72,419.21,353.71,425.15Z" transform="translate(-92.07 -247.34)"/><path class="cls-1" d="M480.77,444.27c.25,8.53-.71,16.88-4.1,25C478.06,460.79,479.41,452.53,480.77,444.27Z" transform="translate(-92.07 -247.34)"/><path d="M325.2,431c-6.91,0-12.89-5.93-12.82-12.67a10.87,10.87,0,0,1,11-10.51c6.92.12,13.17,6,13.25,12.46C336.68,426.15,331.5,431,325.2,431Zm2.66-11.25a3.71,3.71,0,0,0-3.24-4.17c-2.35-.08-3.55,1.38-3.93,3.57a3.33,3.33,0,0,0,3.08,3.91A3.65,3.65,0,0,0,327.86,419.75Z" transform="translate(-92.07 -247.34)"/><path d="M281.94,431c-1.81,1.45-2.71,2.7-3.8,2.91a2.28,2.28,0,0,1-2.69-2.76c.18-1.07,1.51-2.66,2.38-2.7C278.9,428.42,280,429.75,281.94,431Z" transform="translate(-92.07 -247.34)"/><path d="M285.78,346.46a13.08,13.08,0,0,1-3.38-.25,2.87,2.87,0,0,1-1.59-2c-.08-.5.84-1.48,1.49-1.72a10.78,10.78,0,0,1,3.28-.4c10.75-.41,21.12-2.2,30.54-8.06a59.16,59.16,0,0,0,15.5-14.1,15.06,15.06,0,0,1,2.59-3,2.48,2.48,0,0,1,2.4-.16,3,3,0,0,1,.73,2.61,15.13,15.13,0,0,1-2.53,4c-10.9,13.1-24.55,20.83-41.38,22.31C291,346,288.64,346.22,285.78,346.46Z" transform="translate(-92.07 -247.34)"/><path d="M407.16,387.22a1.05,1.05,0,0,1,0-.52c2.63-6.4,6.17-12.15,12-15.95a4.5,4.5,0,0,1,5.88.85,4.64,4.64,0,0,1,.81,6c-2.88,4.75-5.8,9.48-9,14a5.08,5.08,0,0,1-6.5,1.69C407.9,392.27,407.14,390.12,407.16,387.22Z" transform="translate(-92.07 -247.34)"/><path d="M467.23,387.26c-.2,2.84-1.14,4.8-3.35,5.93s-4.7,1.14-6.1-.86A135,135,0,0,1,448,376.58c-1.68-3.31,1.64-7,5.41-6.28a8.37,8.37,0,0,1,4.7,2.62c2.94,3.65,5.53,7.6,8.14,11.51A11.56,11.56,0,0,1,467.23,387.26Z" transform="translate(-92.07 -247.34)"/><path d="M455,404.19c1.09,6.11-1.18,11.56-6.06,14.64a22.1,22.1,0,0,1-21.28,1.73,14,14,0,0,1-8.74-15.32c1.85,2.43,3.62,5.75,6.26,8,7.07,6.09,22.62,3.35,27.67-4.57A43.69,43.69,0,0,0,455,404.19Z" transform="translate(-92.07 -247.34)"/><path d="M439.24,402.91h-4.51c-.22-2.91-1.3-4.73-4.62-5-1.19-.1-2.26-2.66-3.18-4.23-.12-.21.95-1.69,1.49-1.7,5.64-.18,11.28-.22,16.92-.19,1.7,0,2.47,1.15,1.49,2.66-.89,1.35-2,3-3.4,3.43C440.89,398.69,439.44,400,439.24,402.91Z" transform="translate(-92.07 -247.34)"/><path d="M219,543c0,4.45-3.51,8.67-7.24,8.69-3.26,0-7.37-4.63-7.45-8.4s4.24-8.6,7.9-8.56S219,538.47,219,543Z" transform="translate(-92.07 -247.34)"/><path d="M185.53,543.23c0-4.55,3.11-8.33,6.74-8.28,3.92,0,7.94,4.43,7.81,8.52-.13,3.88-4.39,8.17-8.05,8.09C188.7,551.49,185.49,547.38,185.53,543.23Z" transform="translate(-92.07 -247.34)"/><path d="M467.16,552.28c-4.52,0-7.87-3.66-7.89-8.51a8.18,8.18,0,0,1,8.11-8.32,8.39,8.39,0,0,1,8.16,8.37A8.51,8.51,0,0,1,467.16,552.28Z" transform="translate(-92.07 -247.34)"/><path d="M241.23,543.7c.05-4.79,3.52-8.33,8.05-8.22a8.34,8.34,0,0,1,8,8.16c0,4.76-3.83,8.91-8.28,8.93S241.17,548.76,241.23,543.7Z" transform="translate(-92.07 -247.34)"/><path d="M423.84,553.43c-5.87,0-10.28-4.58-10.23-10.72a10.43,10.43,0,0,1,10.51-10.53c5.31,0,10.21,5.09,10.27,10.65A10.77,10.77,0,0,1,423.84,553.43Z" transform="translate(-92.07 -247.34)"/><path d="M312.79,539.79c.79-3.36,2.84-5.17,6.11-5.43,3.6-.28,6.22,1.47,7.79,5.43Z" transform="translate(-92.07 -247.34)"/><path d="M291.57,540H277.62c.89-3.54,3.14-5.49,6.38-5.64C287.58,534.15,290.16,536,291.57,540Z" transform="translate(-92.07 -247.34)"/><path class="cls-1" d="M327.86,419.75a3.65,3.65,0,0,1-4.09,3.31,3.33,3.33,0,0,1-3.08-3.91c.38-2.19,1.58-3.65,3.93-3.57A3.71,3.71,0,0,1,327.86,419.75Z" transform="translate(-92.07 -247.34)"/></svg>